<?xml version="1.0" encoding="utf-8"?>
<!-- Generator: Adobe Illustrator 16.0.0, SVG Export Plug-In . SVG Version: 6.00 Build 0)  -->
<!DOCTYPE svg PUBLIC "-//W3C//DTD SVG 1.1//EN" "http://www.w3.org/Graphics/SVG/1.1/DTD/svg11.dtd" [
	<!ENTITY ns_flows "http://ns.adobe.com/Flows/1.0/">
	<!ENTITY ns_extend "http://ns.adobe.com/Extensibility/1.0/">
	<!ENTITY ns_ai "http://ns.adobe.com/AdobeIllustrator/10.0/">
	<!ENTITY ns_graphs "http://ns.adobe.com/Graphs/1.0/">
]>
<svg version="1.1" id="Layer_1" xmlns:x="&ns_extend;" xmlns:i="&ns_ai;" xmlns:graph="&ns_graphs;"
	 xmlns="http://www.w3.org/2000/svg" xmlns:xlink="http://www.w3.org/1999/xlink" xmlns:a="http://ns.adobe.com/AdobeSVGViewerExtensions/3.0/"
	 x="0px" y="0px" width="864px" height="864px" viewBox="0 0 864 864" enable-background="new 0 0 864 864" xml:space="preserve">
<g>
	<path fill-rule="evenodd" clip-rule="evenodd" d="M415.551,250.515c-72.114-0.135-144.229-0.381-216.341-0.014
		c-5.395,0.027-11.675,3.366-15.999,7.002c-22.625,19.035-27.087,50.852-11.029,75.567c6.516,10.029,13.513,19.746,21.896,31.939
		c-40.963,0-79.168,0-117.923,0c0,23.736,0,44.908,0,66.484c48.619,0,96.22-0.232,143.816,0.144
		c14.148,0.11,24.284-6.097,32.069-16.886c16.021-22.206,15.973-44.488,0.437-69.541c-6.703-10.808-13.25-21.713-20.439-33.511
		c23.489,0,44.275,0,66.9,0c0,40.353,0,79.835,0,119.353c19.625,0,37.369,0,56.983,0c0-40.211,0-79.687,0-120.219
		c22.156,0,42.449,0,62.818,0c0-20.557,0-39.998,0-59.144C417.12,251.074,416.335,250.516,415.551,250.515z"/>
	<path fill-rule="evenodd" clip-rule="evenodd" d="M244.124,442.743c-4.28,13.735-8.41,26.995-13.729,44.067
		c-4.428-14.753-8.212-25.364-10.674-36.274c-1.619-7.169-5.221-8.888-11.898-8.631c-12.22,0.468-24.479,0.563-36.699,0.161
		c-6.763-0.222-10.317,1.894-12.068,8.714c-2.777,10.826-6.498,21.412-9.819,32.1c-0.808,0.014-1.614,0.026-2.421,0.041
		c-3.239-10.835-6.181-21.774-9.903-32.439c-1.093-3.133-4.313-7.743-6.714-7.841c-16.845-0.683-33.73-0.362-51.677-0.362
		c0.885,4.307,1.243,6.808,1.917,9.221c13.709,49.109,27.309,98.252,41.251,147.296c7.116,25.032,7.406,24.597,33.687,25.102
		c9.195,0.177,13.845-1.892,16.142-11.804c4.48-19.34,10.76-38.264,16.295-57.36c0.868,0.065,1.734,0.131,2.602,0.196
		c6.613,22.836,13.226,45.671,19.938,68.848c10.139,0,19.354-0.725,28.403,0.2c9.509,0.971,12.764-3.317,15.01-11.752
		c9.312-34.959,19.253-69.752,28.944-104.611c5.922-21.297,11.81-42.603,17.981-64.87
		C280.635,442.743,262.404,442.743,244.124,442.743z"/>
	<path fill-rule="evenodd" clip-rule="evenodd" d="M790.807,441.631c-1.962-0.482-3.606-1.255-5.24-1.233
		c-31.488,0.404-62.976,0.816-94.457,1.504c-3.306,0.071-6.801,1.423-9.824,2.944c-28.737,14.451-38.309,53.242-19.996,81.307
		c6.293,9.646,13.149,18.921,20.384,29.272c-29.688,0-57.35,0-86.716,0c25.225-25.827,31.492-55.877,18.684-83.057
		c-7.6-16.126-19.91-28.32-37.638-29.097c-35.225-1.543-70.565-0.456-106.69-0.456c0,61.218,0,121.644,0,182.363
		c19.767,0,38.436,0,59.27,0c0-14.498,0-28.471,0-45.522c12.262,13.38,22.059,23.839,31.585,34.54
		c7.121,8.001,15.43,11.594,26.473,11.451c38.927-0.503,77.9-1.218,116.78,0.217c21.755,0.801,40.831-15.401,46.074-33.653
		c5.291-18.419,5.238-35.994-6.433-52.507c-7.59-10.742-14.245-22.146-22.776-35.54c25.449,0,47.603,0,70.521,0
		C790.807,482.639,790.807,462.326,790.807,441.631z M555.961,514.056c-8.445,1.188-17.164,0.426-26.913,0.426
		c0-6.026,0-10.627,0-16.18c9.389,0,18.041-0.562,26.543,0.319c2.821,0.292,7.74,4.895,7.36,6.488
		C562.117,508.586,558.818,513.654,555.961,514.056z"/>
	<path fill-rule="evenodd" clip-rule="evenodd" d="M715.277,364.396c-0.267-1.282-0.534-2.563-0.802-3.844
		c15.888-13.124,23.609-30.173,24.315-50.333c0.961-27.471-18.243-58.441-39.727-59.424c-36.928-1.689-73.989-0.466-111.333-0.466
		c0,60.88,0,120.476,0,180.648c19.343,0,37.864,0,56.739,0c0.944-14.38,1.834-27.919,2.896-44.078
		c9.244,10.576,16.632,18.534,23.453,26.952c9.872,12.181,21.409,19.782,38.046,18.913c13.492-0.704,27.074,0.487,40.62,0.629
		c13.803,0.144,27.609,0.031,41.439,0.031c0-23.372,0-45.057,0-69.029C765.267,364.396,740.271,364.396,715.277,364.396z
		 M646.617,321.135c0-5.836,0-10.394,0-15.886c9.588,0,18.631-0.676,27.463,0.39c2.848,0.342,5.144,5.263,7.691,8.089
		c-2.873,2.47-5.533,6.68-8.664,7.069C664.955,321.805,656.597,321.135,646.617,321.135z"/>
	<path fill-rule="evenodd" clip-rule="evenodd" d="M402.494,441.343c-22.533,0-44.322,0.357-66.09-0.185
		c-8.121-0.203-11.193,2.622-13.241,10.387c-11.45,43.389-23.53,86.611-35.41,129.887c-3.737,13.614-7.52,27.216-11.667,42.219
		c18.241,0,34.348,0.462,50.384-0.401c3.081-0.165,7.877-5.189,8.444-8.552c1.815-10.774,7.174-14.918,17.817-13.548
		c4.289,0.553,8.724-0.101,13.09-0.099c23.93,0.012,23.93,0.023,31.517,22.114c18.304,0,36.788,0,56.868,0
		C436.697,561.599,419.579,501.414,402.494,441.343z M355.182,544.051c3.217-12.53,6.037-23.516,8.858-34.502
		c0.778,0.14,1.556,0.279,2.334,0.421c2.512,10.451,5.024,20.902,7.968,33.153C368.148,543.423,362.875,543.678,355.182,544.051z"/>
	<path fill-rule="evenodd" clip-rule="evenodd" d="M522.92,250.045c-22.798,0-44.177,0.499-65.514-0.238
		c-8.83-0.305-11.853,3.149-13.993,10.988c-11.248,41.169-23.062,82.185-34.54,123.293c-4.367,15.637-8.362,31.377-12.776,48.009
		c17.789,0,33.467,0.296,49.115-0.266c2.926-0.104,8.028-3.431,8.228-5.625c1.713-18.833,14.685-18.342,28.203-17.437
		c4.792,0.32,9.665,1.17,14.373,0.642c10.995-1.233,16.864,2.802,18.837,14.085c0.603,3.444,5.412,8.585,8.52,8.75
		c16.402,0.876,32.875,0.411,50.545,0.411C556.624,370.735,539.904,310.864,522.92,250.045z M493.959,351.889
		c-7.297,0-11.906,0-17.787,0c2.677-11.441,5.124-21.901,7.571-32.361c1.024-0.159,2.047-0.318,3.071-0.477
		C489.096,329.537,491.377,340.022,493.959,351.889z"/>
</g>
<g>
	<path fill-rule="evenodd" clip-rule="evenodd" fill="#E2C675" d="M790.807,441.631c0,20.695,0,41.008,0,62.533
		c-22.919,0-45.072,0-70.521,0c8.531,13.395,15.187,24.798,22.776,35.54c11.671,16.513,11.724,34.088,6.433,52.507
		c-5.243,18.252-24.319,34.454-46.074,33.653c-38.88-1.435-77.854-0.72-116.78-0.217c-11.043,0.143-19.352-3.45-26.473-11.451
		c-9.526-10.701-19.323-21.16-31.585-34.54c0,17.052,0,31.024,0,45.522c-20.834,0-39.503,0-59.27,0c0-60.72,0-121.146,0-182.363
		c36.125,0,71.466-1.087,106.69,0.456c17.728,0.776,30.038,12.971,37.638,29.097c12.809,27.18,6.541,57.229-18.684,83.057
		c29.366,0,57.027,0,86.716,0c-7.234-10.352-14.091-19.627-20.384-29.272c-18.312-28.064-8.741-66.855,19.996-81.307
		c3.023-1.521,6.519-2.873,9.824-2.944c31.481-0.688,62.969-1.1,94.457-1.504C787.2,440.376,788.845,441.148,790.807,441.631z
		 M780.826,494.408c0-15.443,0-27.932,0-40.787c-29.988,0-59.2-0.896-88.284,0.625c-7.358,0.384-15.792,7.18-21.151,13.293
		c-12.012,13.701-12.348,36.129-2.342,51.355c6.472,9.847,13.821,19.144,19.916,29.208c7.165,11.83,3.014,19.696-10.483,19.905
		c-25.361,0.393-50.736-0.011-76.104,0.211c-12.02,0.106-17.748-6.771-21.662-17.157c3.188-2.572,5.87-4.752,8.569-6.913
		c21.179-16.958,28.252-43.315,14.938-66.526c-5.357-9.341-16.343-20.886-25.546-21.616c-32.932-2.613-66.198-1.024-99.032-1.024
		c-0.922,2.242-1.842,3.435-1.843,4.63c-0.028,48.982-0.055,97.966,0.296,146.946c0.018,2.515,3.22,7.055,5.146,7.168
		c11.498,0.681,23.055,0.338,35.753,0.338c0-20.967,0-39.521,0-61.579c15.44,17.494,27.95,33.026,42.016,46.99
		c6.31,6.265,15.628,13.077,23.769,13.318c41.93,1.247,83.932,0.946,125.876-0.127c7.229-0.186,15.888-5.156,21.131-10.581
		c14.283-14.775,15.459-35.268,4.668-53.066c-7.248-11.952-15.338-23.411-22.259-35.541c-7.217-12.648-3.478-18.892,10.782-19.027
		C743.256,494.277,761.535,494.408,780.826,494.408z"/>
	<path fill-rule="evenodd" clip-rule="evenodd" fill="#E2C675" d="M76.155,365.01c38.755,0,76.959,0,117.923,0
		c-8.383-12.193-15.38-21.91-21.896-31.939c-16.058-24.716-11.596-56.532,11.029-75.567c4.323-3.637,10.604-6.976,15.999-7.002
		c72.112-0.367,144.227-0.121,216.341,0.014c0.785,0.001,1.569,0.559,3.19,1.175c0,19.146,0,38.587,0,59.144
		c-20.37,0-40.662,0-62.818,0c0,40.532,0,80.008,0,120.219c-19.614,0-37.358,0-56.983,0c0-39.518,0-79,0-119.353
		c-22.625,0-43.411,0-66.9,0c7.189,11.798,13.736,22.704,20.439,33.511c15.536,25.053,15.584,47.334-0.437,69.541
		c-7.786,10.789-17.921,16.996-32.069,16.886c-47.596-0.375-95.197-0.144-143.816-0.144
		C76.155,409.918,76.155,388.746,76.155,365.01z M86.126,420.45c43.939,0,86.35,0.855,128.706-0.274
		c32.94-0.879,49.433-33.18,32.854-62.104c-7.384-12.881-15.713-25.231-22.843-38.243c-5.686-10.377-2.193-19.557,7.567-19.803
		c24.827-0.625,49.68-0.208,76.356-0.208c0,40.34,0,80.244,0,119.921c13.385,0,24.912,0,37.542,0c0-40.363,0-79.588,0-120.516
		c21.876,0,42.648,0,64.02,0c0-13.767,0-25.806,0-38.765c-4.322-0.368-8.153-0.99-11.981-0.974
		c-63.869,0.238-127.737,0.629-191.606,0.797c-13,0.035-21.409,7.23-27.251,17.416c-9.393,16.378-10.25,33.11,0.968,49.357
		c6.948,10.063,14.449,19.812,20.59,30.349c5.667,9.725,0.287,18.21-10.982,18.833c-3.926,0.217-7.873,0.041-11.81,0.041
		c-30.491,0-60.982,0-92.129,0C86.126,391.593,86.126,405.36,86.126,420.45z"/>
	<path fill-rule="evenodd" clip-rule="evenodd" fill="#E2C675" d="M149.236,482.88c3.321-10.688,7.042-21.273,9.819-32.1
		c1.751-6.82,5.305-8.936,12.068-8.714c12.22,0.402,24.479,0.307,36.699-0.161c6.678-0.257,10.279,1.462,11.898,8.631
		c2.462,10.91,6.246,21.521,10.674,36.274c5.319-17.072,9.449-30.332,13.729-44.067c18.28,0,36.512,0,56.569,0
		c-6.171,22.268-12.06,43.573-17.981,64.87c-9.691,34.859-19.632,69.652-28.944,104.611c-2.247,8.435-5.501,12.723-15.01,11.752
		c-9.049-0.925-18.265-0.2-28.403-0.2c-6.712-23.177-13.325-46.012-19.938-68.848c-0.868-0.065-1.734-0.131-2.602-0.196
		c-5.535,19.097-11.815,38.021-16.295,57.36c-2.297,9.912-6.947,11.98-16.142,11.804c-26.281-0.505-26.57-0.069-33.687-25.102
		c-13.943-49.044-27.542-98.187-41.251-147.296c-0.673-2.413-1.032-4.914-1.917-9.221c17.947,0,34.833-0.32,51.677,0.362
		c2.401,0.098,5.621,4.708,6.714,7.841c3.722,10.665,6.664,21.604,9.903,32.439C147.623,482.906,148.429,482.894,149.236,482.88z
		 M189.298,517.343c1.925,5.373,3.095,8.104,3.89,10.942c7.06,25.187,14.37,50.31,20.885,75.637
		c2.144,8.335,6.149,10.593,14.495,10.982c10.547,0.494,16.505-2.188,17.764-13.309c0.53-4.685,2.67-9.175,3.95-13.789
		c12.194-43.964,24.362-87.935,36.957-133.417c-8.535-0.397-15.867-0.377-23.11-1.164c-10.001-1.088-14.665,2.596-17.001,12.863
		c-4.13,18.156-10.114,35.889-15.323,53.8c-7.969-18.116-13.325-35.974-17.843-54.041c-2.306-9.219-6.011-14.96-16.646-12.995
		c-2.959,0.547-6.186,0.537-9.154,0.016c-14.748-2.593-21.812,2.881-24.558,18.229c-2.984,16.683-9.257,32.777-14.095,49.128
		c-7.914-19.623-13.354-38.841-19.25-57.916c-1.026-3.322-3.758-8.443-6.065-8.647c-10.518-0.934-21.167-0.41-32.85-0.41
		c14.064,50.695,27.757,98.885,40.58,147.306c2.437,9.203,5.567,12.862,15.545,12.688c9.572-0.166,14.595-1.874,17.309-12.293
		C171.871,573.715,180.516,546.881,189.298,517.343z"/>
	<path fill-rule="evenodd" clip-rule="evenodd" fill="#E2C675" d="M715.277,364.396c24.994,0,49.989,0,75.648,0
		c0,23.972,0,45.657,0,69.029c-13.83,0-27.637,0.112-41.439-0.031c-13.546-0.142-27.128-1.333-40.62-0.629
		c-16.637,0.869-28.174-6.732-38.046-18.913c-6.821-8.418-14.209-16.376-23.453-26.952c-1.062,16.159-1.952,29.698-2.896,44.078
		c-18.875,0-37.396,0-56.739,0c0-60.172,0-119.768,0-180.648c37.344,0,74.405-1.223,111.333,0.466
		c21.483,0.983,40.688,31.953,39.727,59.424c-0.706,20.159-8.428,37.209-24.315,50.333
		C714.743,361.833,715.011,363.114,715.277,364.396z M781.195,376.093c-19.142,0-37.429-0.847-55.594,0.272
		c-14.198,0.875-21.443-5.969-26.961-17.789c4.914-3.851,9.625-7.027,13.731-10.85c15.164-14.117,19.537-31.984,15.053-51.471
		c-3.798-16.508-12.682-32.156-30.9-33.243c-32.886-1.961-65.97-0.555-99.373-0.555c0,52.404,0,104.639,0,157.229
		c13.682,0,26.409,0,40.5,0c0-19.674,0-38.161,0-59.394c16.521,18.323,30.817,34.608,45.678,50.36
		c3.683,3.903,9.123,8.508,13.877,8.648c27.791,0.816,55.619,0.4,83.989,0.4C781.195,405.541,781.195,391.82,781.195,376.093z"/>
	<path fill-rule="evenodd" clip-rule="evenodd" fill="#E2C675" d="M402.494,441.343c17.085,60.071,34.204,120.256,51.713,181.822
		c-20.08,0-38.564,0-56.868,0c-7.587-22.091-7.587-22.103-31.517-22.114c-4.367-0.002-8.801,0.651-13.09,0.099
		c-10.644-1.37-16.002,2.773-17.817,13.548c-0.566,3.362-5.363,8.387-8.444,8.552c-16.036,0.863-32.144,0.401-50.384,0.401
		c4.146-15.003,7.929-28.604,11.667-42.219c11.879-43.275,23.959-86.498,35.41-129.887c2.048-7.765,5.12-10.59,13.241-10.387
		C358.171,441.7,379.961,441.343,402.494,441.343z M404.206,611.99c12.093,0,23.623,0,36.426,0
		c-14.563-51.86-28.67-102.635-43.416-153.225c-0.864-2.964-6.802-6.094-10.526-6.286c-14.389-0.743-28.861,0.165-43.253-0.534
		c-7.782-0.379-10.364,2.613-12.242,9.722c-8.019,30.343-16.73,60.502-25.153,90.737c-5.431,19.495-10.798,39.006-16.414,59.305
		c13.225,0,24.422,0,35.912,0c1.44-5.608,1.994-10.985,4.263-15.499c1.58-3.143,5.447-7.161,8.409-7.259
		c19.607-0.645,39.244-0.333,59.245-0.333C399.897,597.067,402.042,604.5,404.206,611.99z"/>
	<path fill-rule="evenodd" clip-rule="evenodd" fill="#E2C675" d="M522.92,250.045c16.984,60.819,33.704,120.69,50.997,182.613
		c-17.67,0-34.143,0.465-50.545-0.411c-3.107-0.165-7.917-5.306-8.52-8.75c-1.973-11.283-7.842-15.318-18.837-14.085
		c-4.708,0.528-9.581-0.322-14.373-0.642c-13.519-0.905-26.49-1.396-28.203,17.437c-0.199,2.194-5.302,5.521-8.228,5.625
		c-15.648,0.562-31.326,0.266-49.115,0.266c4.414-16.632,8.409-32.372,12.776-48.009c11.478-41.108,23.292-82.124,34.54-123.293
		c2.141-7.839,5.163-11.293,13.993-10.988C478.743,250.544,500.122,250.045,522.92,250.045z M561.186,421.76
		c-14.886-52.886-29.31-104.417-44.137-155.832c-0.642-2.228-4.959-4.76-7.617-4.822c-18.303-0.42-36.622-0.222-55.684-0.222
		c-14.909,53.341-29.616,105.958-44.409,158.88c34.323,3.557,34.323,3.557,44.029-22.31c19.231,0,38.85-0.314,58.435,0.34
		c2.936,0.097,8.058,4.608,8.19,7.275c0.767,15.453,9.731,18.204,22.666,16.79C548.188,421.256,553.839,421.76,561.186,421.76z"/>
	<path fill-rule="evenodd" clip-rule="evenodd" fill="#E2C675" d="M519.215,486.809c13.504,0,26.133-0.606,38.673,0.179
		c11.385,0.713,15.217,9.439,15.606,19.279c0.385,9.697-4.397,16.675-14.188,19.426c-1.238,0.348-2.608,0.355-3.912,0.321
		C511.183,524.888,518.257,535.313,519.215,486.809z M529.048,514.481c9.749,0,18.468,0.763,26.913-0.426
		c2.857-0.401,6.156-5.47,6.99-8.946c0.38-1.594-4.539-6.196-7.36-6.488c-8.502-0.882-17.154-0.319-26.543-0.319
		C529.048,503.854,529.048,508.455,529.048,514.481z"/>
	<path fill-rule="evenodd" clip-rule="evenodd" fill="#E2C675" d="M637.519,331.84c0-13.328,0-25.375,0-38.689
		c13.471,0,26.452-0.914,39.236,0.285c10.553,0.988,16.14,10.59,14.876,22.467c-1.117,10.513-6.251,16.791-17.784,16.502
		c-9.58-0.238-19.175,0.178-28.764,0.203C642.959,332.614,640.834,332.191,637.519,331.84z M646.617,321.135
		c9.979,0,18.338,0.67,26.49-0.338c3.131-0.389,5.791-4.599,8.664-7.069c-2.548-2.826-4.844-7.747-7.691-8.089
		c-8.832-1.065-17.875-0.39-27.463-0.39C646.617,310.741,646.617,315.299,646.617,321.135z"/>
	<path fill-rule="evenodd" clip-rule="evenodd" fill="#E2C675" d="M342.715,552.844c7.449-25.134,14.675-49.509,23.049-77.764
		c7.696,28.012,14.347,52.223,21.363,77.764C372.374,552.844,358.361,552.844,342.715,552.844z M366.375,509.97
		c-0.778-0.142-1.556-0.281-2.334-0.421c-2.821,10.986-5.641,21.972-8.858,34.502c7.693-0.373,12.966-0.628,19.161-0.928
		C371.399,530.872,368.887,520.421,366.375,509.97z"/>
	<path fill-rule="evenodd" clip-rule="evenodd" fill="#E2C675" d="M487.189,286.852c6.905,24.936,13.811,49.871,20.941,75.623
		c-15.453,0-29.577,0-45.231,0c7.543-25.95,14.761-50.78,21.979-75.608C485.647,286.861,486.42,286.857,487.189,286.852z
		 M493.959,351.889c-2.582-11.866-4.863-22.352-7.145-32.838c-1.024,0.159-2.047,0.317-3.071,0.477
		c-2.447,10.46-4.895,20.92-7.571,32.361C482.053,351.889,486.662,351.889,493.959,351.889z"/>
</g>
</svg>
